<?xml version="1.0" encoding="UTF-8" standalone="no"?>
<!-- Created with Inkscape (http://www.inkscape.org/) -->

<svg
   xmlns:dc="http://purl.org/dc/elements/1.1/"
   xmlns:cc="http://creativecommons.org/ns#"
   xmlns:rdf="http://www.w3.org/1999/02/22-rdf-syntax-ns#"
   xmlns:svg="http://www.w3.org/2000/svg"
   xmlns="http://www.w3.org/2000/svg"
   xmlns:sodipodi="http://sodipodi.sourceforge.net/DTD/sodipodi-0.dtd"
   xmlns:inkscape="http://www.inkscape.org/namespaces/inkscape"
   width="64.30397mm"
   height="31.328461mm"
   viewBox="0 0 32.151986 15.664231"
   version="1.1"
   id="svg8"
   inkscape:version="0.92.2 2405546, 2018-03-11"
   sodipodi:docname="logo.svg">
  <defs
     id="defs2" />
  <sodipodi:namedview
     id="base"
     pagecolor="#ffffff"
     bordercolor="#666666"
     borderopacity="1.0"
     inkscape:pageopacity="0.0"
     inkscape:pageshadow="2"
     inkscape:zoom="1.4142136"
     inkscape:cx="-27.421354"
     inkscape:cy="133.36053"
     inkscape:document-units="mm"
     inkscape:current-layer="layer1"
     showgrid="false"
     inkscape:window-width="1440"
     inkscape:window-height="837"
     inkscape:window-x="0"
     inkscape:window-y="0"
     inkscape:window-maximized="1"
     fit-margin-top="0"
     fit-margin-left="0"
     fit-margin-right="0"
     fit-margin-bottom="0"
     scale-x="0.5" />
  <metadata
     id="metadata5">
    <rdf:RDF>
      <cc:Work
         rdf:about="">
        <dc:format>image/svg+xml</dc:format>
        <dc:type
           rdf:resource="http://purl.org/dc/dcmitype/StillImage" />
        <dc:title></dc:title>
      </cc:Work>
    </rdf:RDF>
  </metadata>
  <g
     inkscape:label="Ebene 1"
     inkscape:groupmode="layer"
     id="layer1"
     transform="translate(-37.05045,-107.3572)">
    <g
       aria-label="i"
       style="font-style:normal;font-variant:normal;font-weight:normal;font-stretch:normal;font-size:16.93333244px;line-height:125%;font-family:'Nimbus Roman';-inkscape-font-specification:'Nimbus Roman, ';letter-spacing:0px;word-spacing:0px;fill:#000000;fill-opacity:1;stroke:none;stroke-width:0.26458332px;stroke-linecap:butt;stroke-linejoin:miter;stroke-opacity:1"
       id="text819" />
    <g
       aria-label="moin"
       transform="scale(1.1819013,0.84609433)"
       style="font-style:normal;font-variant:normal;font-weight:normal;font-stretch:normal;font-size:12.30163193px;line-height:125%;font-family:'Nimbus Sans Narrow';-inkscape-font-specification:'Nimbus Sans Narrow';letter-spacing:0px;word-spacing:0px;fill:#000000;fill-opacity:1;stroke:none;stroke-width:0.26458332px;stroke-linecap:butt;stroke-linejoin:miter;stroke-opacity:1"
       id="text823">
      <path
         d="m 38.00422,143.46982 h 0.885718 v -3.50597 c 0,-1.31627 0.553573,-2.15278 1.402386,-2.15278 0.516668,0 0.824209,0.44286 0.824209,1.20556 v 4.45319 h 0.885718 v -3.92422 c 0,-0.97183 0.553573,-1.73453 1.267068,-1.73453 0.651986,0 0.959527,0.49206 0.959527,1.5008 v 4.15795 h 0.885718 v -4.45319 c 0,-1.34088 -0.627384,-2.16509 -1.660721,-2.16509 -0.651986,0 -0.98413,0.22143 -1.58691,1.04564 -0.332144,-0.7504 -0.738098,-1.04564 -1.390085,-1.04564 -0.701193,0 -1.180956,0.33214 -1.636117,1.13175 v -0.94723 H 38.00422 Z"
         style="font-style:normal;font-variant:normal;font-weight:normal;font-stretch:normal;font-family:'Nimbus Sans Narrow';-inkscape-font-specification:'Nimbus Sans Narrow';stroke-width:0.26458332px"
         id="path873"
         inkscape:connector-curvature="0" />
      <path
         d="m 48.60323,136.85154 c -1.488498,0 -2.48493,1.36548 -2.48493,3.40755 0,1.99287 0.996432,3.38295 2.448025,3.38295 1.451592,0 2.448025,-1.39008 2.448025,-3.39525 0,-1.99286 -0.996433,-3.39525 -2.41112,-3.39525 z m -0.0123,0.94723 c 0.898019,0 1.500799,0.97182 1.500799,2.44802 0,1.4885 -0.60278,2.44803 -1.525402,2.44803 -0.934924,0 -1.525402,-0.95953 -1.525402,-2.44803 0,-1.5008 0.590478,-2.44802 1.550005,-2.44802 z"
         style="font-style:normal;font-variant:normal;font-weight:normal;font-stretch:normal;font-family:'Nimbus Sans Narrow';-inkscape-font-specification:'Nimbus Sans Narrow';stroke-width:0.26458332px"
         id="path875"
         inkscape:connector-curvature="0" />
      <path
         d="m 52.922064,137.03606 h -0.885718 v 6.43376 h 0.885718 z m 0,-1.16865 v -1.23016 h -0.885718 v 1.23016 z"
         style="font-style:normal;font-variant:normal;font-weight:normal;font-stretch:normal;font-family:'Nimbus Sans Narrow';-inkscape-font-specification:'Nimbus Sans Narrow';stroke-width:0.26458332px"
         id="path877"
         inkscape:connector-curvature="0" />
      <path
         d="m 55.08273,137.03606 h -0.836511 v 6.43376 h 0.885718 v -3.50597 c 0,-1.34087 0.553573,-2.15278 1.451592,-2.15278 0.7504,0 1.082544,0.51667 1.082544,1.69762 v 3.96113 h 0.885717 v -4.37938 c 0,-1.41469 -0.651986,-2.2389 -1.783736,-2.2389 -0.725797,0 -1.230164,0.33214 -1.685324,1.13175 z"
         style="font-style:normal;font-variant:normal;font-weight:normal;font-stretch:normal;font-family:'Nimbus Sans Narrow';-inkscape-font-specification:'Nimbus Sans Narrow';stroke-width:0.26458332px"
         id="path879"
         inkscape:connector-curvature="0" />
    </g>
    <path
       id="path865"
       style="opacity:1;fill:#000000;fill-opacity:1;stroke:none;stroke-width:0.63499993;stroke-linecap:square;stroke-linejoin:round;stroke-miterlimit:4;stroke-dasharray:none;stroke-dashoffset:0;stroke-opacity:1;paint-order:stroke markers fill"
       d="m 45.718111,109.86342 c -0.128463,0 -0.276996,0.11644 -0.331667,0.26011 -0.05465,0.14364 0.0053,0.26011 0.133846,0.26011 0.128461,0 0.276154,-0.11644 0.330821,-0.26011 0.05467,-0.14362 -0.0046,-0.26011 -0.133,-0.26011 z m -0.08671,-0.4512 c 0.369405,0 0.575489,0.24492 0.460456,0.54716 -0.115036,0.30223 -0.507744,0.54716 -0.877136,0.54716 -0.369391,0 -0.57547,-0.24493 -0.460455,-0.54716 0.115018,-0.30224 0.507731,-0.54716 0.877135,-0.54716 z m -0.299628,-2.05502 c -1.059114,0 -2.304318,0.90255 -2.722329,2.00092 -0.432925,1.13755 0.102053,2.00092 1.200384,2.00092 1.176797,0 2.367687,-0.86337 2.800615,-2.00092 0.432933,-1.13758 -0.141094,-2.00092 -1.27867,-2.00092 z"
       inkscape:connector-curvature="0"
       sodipodi:nodetypes="scscsscscsscscs" />
    <path
       style="opacity:1;fill:#000000;fill-opacity:1;stroke:none;stroke-width:0.63499999;stroke-linecap:square;stroke-linejoin:round;stroke-miterlimit:4;stroke-dasharray:none;stroke-dashoffset:0;stroke-opacity:1;paint-order:stroke markers fill"
       d="m 45.483624,111.40936 -4.441135,1.38847 -0.144101,0.37867 0.211276,-0.0255 c 0.322169,-0.0505 0.634917,-0.0758 0.887361,-0.0758 0.605865,0 0.679509,0.40393 0.256781,1.51468 l -2.229235,5.85669 c -0.761444,1.86809 -1.084578,2.12046 -2.83002,2.19619 l -0.144101,0.37867 h 5.982913 l 0.1441,-0.37867 c -1.618077,-0.12627 -1.708103,-0.35334 -1.032005,-2.19619 l 3.410218,-8.96191 z"
       id="path849"
       inkscape:connector-curvature="0" />
  </g>
</svg>
